<svg width="16" height="16" viewBox="0 0 16 16" xmlns="http://www.w3.org/2000/svg">
    <rect id="8-3" x="7" y="2" width="1" height="1" fill="#505250" shape-rendering="crispEdges"/>
    <rect id="9-3" x="8" y="2" width="1" height="1" fill="#505150" shape-rendering="crispEdges"/>
    <rect id="10-3" x="9" y="2" width="1" height="1" fill="#807e80" shape-rendering="crispEdges"/>
    <rect id="11-3" x="10" y="2" width="1" height="1" fill="#5f605f" shape-rendering="crispEdges"/>
    <rect id="7-4" x="6" y="3" width="1" height="1" fill="#828082" shape-rendering="crispEdges"/>
    <rect id="8-4" x="7" y="3" width="1" height="1" fill="#585a58" shape-rendering="crispEdges"/>
    <rect id="9-4" x="8" y="3" width="1" height="1" fill="#434643" shape-rendering="crispEdges"/>
    <rect id="10-4" x="9" y="3" width="1" height="1" fill="#817f81" shape-rendering="crispEdges"/>
    <rect id="6-5" x="5" y="4" width="1" height="1" fill="#484b48" shape-rendering="crispEdges"/>
    <rect id="7-5" x="6" y="4" width="1" height="1" fill="#585958" shape-rendering="crispEdges"/>
    <rect id="8-5" x="7" y="4" width="1" height="1" fill="#676767" shape-rendering="crispEdges"/>
    <rect id="9-5" x="8" y="4" width="1" height="1" fill="#525352" shape-rendering="crispEdges"/>
    <rect id="5-6" x="4" y="5" width="1" height="1" fill="#5a5b5a" shape-rendering="crispEdges"/>
    <rect id="6-6" x="5" y="5" width="1" height="1" fill="#484b48" shape-rendering="crispEdges"/>
    <rect id="7-6" x="6" y="5" width="1" height="1" fill="#525452" shape-rendering="crispEdges"/>
    <rect id="4-7" x="3" y="6" width="1" height="1" fill="#444644" shape-rendering="crispEdges"/>
    <rect id="5-7" x="4" y="6" width="1" height="1" fill="#333733" shape-rendering="crispEdges"/>
    <rect id="6-7" x="5" y="6" width="1" height="1" fill="#676867" shape-rendering="crispEdges"/>
    <rect id="7-7" x="6" y="6" width="1" height="1" fill="#ae6d27" shape-rendering="crispEdges"/>
    <rect id="8-7" x="7" y="6" width="1" height="1" fill="#87531b" shape-rendering="crispEdges"/>
    <rect id="3-8" x="2" y="7" width="1" height="1" fill="#717071" shape-rendering="crispEdges"/>
    <rect id="4-8" x="3" y="7" width="1" height="1" fill="#737273" shape-rendering="crispEdges"/>
    <rect id="5-8" x="4" y="7" width="1" height="1" fill="#7a797a" shape-rendering="crispEdges"/>
    <rect id="7-8" x="6" y="7" width="1" height="1" fill="#8e571e" shape-rendering="crispEdges"/>
    <rect id="8-8" x="7" y="7" width="1" height="1" fill="#965d20" shape-rendering="crispEdges"/>
    <rect id="9-8" x="8" y="7" width="1" height="1" fill="#935a1f" shape-rendering="crispEdges"/>
    <rect id="3-9" x="2" y="8" width="1" height="1" fill="#4c4e4c" shape-rendering="crispEdges"/>
    <rect id="4-9" x="3" y="8" width="1" height="1" fill="#525352" shape-rendering="crispEdges"/>
    <rect id="5-9" x="4" y="8" width="1" height="1" fill="#333733" shape-rendering="crispEdges"/>
    <rect id="8-9" x="7" y="8" width="1" height="1" fill="#8b561d" shape-rendering="crispEdges"/>
    <rect id="9-9" x="8" y="8" width="1" height="1" fill="#a86925" shape-rendering="crispEdges"/>
    <rect id="10-9" x="9" y="8" width="1" height="1" fill="#814f1a" shape-rendering="crispEdges"/>
    <rect id="3-10" x="2" y="9" width="1" height="1" fill="#353935" shape-rendering="crispEdges"/>
    <rect id="4-10" x="3" y="9" width="1" height="1" fill="#494b49" shape-rendering="crispEdges"/>
    <rect id="9-10" x="8" y="9" width="1" height="1" fill="#7e4d19" shape-rendering="crispEdges"/>
    <rect id="10-10" x="9" y="9" width="1" height="1" fill="#a06323" shape-rendering="crispEdges"/>
    <rect id="11-10" x="10" y="9" width="1" height="1" fill="#89541c" shape-rendering="crispEdges"/>
    <rect id="3-11" x="2" y="10" width="1" height="1" fill="#3b3e3b" shape-rendering="crispEdges"/>
    <rect id="10-11" x="9" y="10" width="1" height="1" fill="#995f21" shape-rendering="crispEdges"/>
    <rect id="11-11" x="10" y="10" width="1" height="1" fill="#9c6122" shape-rendering="crispEdges"/>
    <rect id="12-11" x="11" y="10" width="1" height="1" fill="#a76825" shape-rendering="crispEdges"/>
    <rect id="11-12" x="10" y="11" width="1" height="1" fill="#90591e" shape-rendering="crispEdges"/>
    <rect id="12-12" x="11" y="11" width="1" height="1" fill="#b37028" shape-rendering="crispEdges"/>
    <rect id="13-12" x="12" y="11" width="1" height="1" fill="#83511a" shape-rendering="crispEdges"/>
    <rect id="12-13" x="11" y="12" width="1" height="1" fill="#ad6c27" shape-rendering="crispEdges"/>
    <rect id="13-13" x="12" y="12" width="1" height="1" fill="#af6d27" shape-rendering="crispEdges"/>
    <rect id="14-13" x="13" y="12" width="1" height="1" fill="#ac6b26" shape-rendering="crispEdges"/>
    <rect id="13-14" x="12" y="13" width="1" height="1" fill="#9f6222" shape-rendering="crispEdges"/>
    <rect id="14-14" x="13" y="13" width="1" height="1" fill="#a16423" shape-rendering="crispEdges"/>
    <rect id="15-14" x="14" y="13" width="1" height="1" fill="#9a6021" shape-rendering="crispEdges"/>
    <rect id="14-15" x="13" y="14" width="1" height="1" fill="#9e6222" shape-rendering="crispEdges"/>
    <rect id="15-15" x="14" y="14" width="1" height="1" fill="#82501a" shape-rendering="crispEdges"/>
</svg>