# Blender 4.0.2
# www.blender.org
o Plane
v 0.146447 0.000000 0.853553
v 0.853553 0.000000 0.146447
v 0.146447 1.000000 0.853553
v 0.853553 1.000000 0.146447
v 0.500000 0.000000 0.500000
v 0.500000 1.000000 0.500000
v 0.853553 0.000000 0.853553
v 0.853553 1.000000 0.853553
v 0.146447 0.000000 0.146447
v 0.146447 1.000000 0.146447
vn 0.7071 -0.0000 0.7071
vn -0.7071 -0.0000 0.7071
vt 0.285714 -0.000000
vt 0.214286 0.142857
vt 0.214286 -0.000000
vt 0.142857 0.142857
vt 0.142857 -0.000000
vt 0.285714 0.142857
vt 0.142857 0.142857
vt 0.142857 -0.000000
s 0
f 2/1/1 6/2/1 5/3/1
f 5/3/1 3/4/1 1/5/1
f 6/2/2 7/1/2 8/6/2
f 5/3/2 10/7/2 9/8/2
f 2/1/1 4/6/1 6/2/1
f 5/3/1 6/2/1 3/4/1
f 6/2/2 5/3/2 7/1/2
f 5/3/2 6/2/2 10/7/2
