# Blender 4.0.2
# www.blender.org
o TopSlab
v 0.000000 0.500000 1.000000
v 0.000000 1.000000 1.000000
v 0.000000 0.500000 0.000000
v 1.000000 0.500000 1.000000
v 1.000000 1.000000 1.000000
v 1.000000 0.500000 0.000000
v 0.000000 1.000000 0.000000
v 1.000000 1.000000 0.000000
vn 1.0000 -0.0000 -0.0000
vn -0.0000 -0.0000 -1.0000
vn -0.0000 -0.0000 1.0000
vn -0.0000 -1.0000 -0.0000
vn -1.0000 -0.0000 -0.0000
vn -0.0000 1.0000 -0.0000
vt 0.142857 1.000000
vt -0.000000 0.928571
vt 0.142857 0.928571
vt -0.000000 1.000000
vt 0.142857 1.000000
vt 0.142857 0.857143
vt 0.000000 1.000000
vt 0.000000 0.857143
vt 0.142857 1.000000
vt -0.000000 1.000000
vt 0.000000 0.857143
vt 0.142857 0.857143
vt -0.000000 1.000000
s 0
f 8/1/1 4/2/1 6/3/1
f 3/3/2 8/4/2 6/2/2
f 5/5/3 1/2/3 4/3/3
f 6/6/4 1/7/4 3/8/4
f 3/2/5 2/9/5 7/10/5
f 2/9/6 8/11/6 7/12/6
f 8/1/1 5/13/1 4/2/1
f 3/3/2 7/5/2 8/4/2
f 5/5/3 2/13/3 1/2/3
f 6/6/4 4/9/4 1/7/4
f 3/2/5 1/3/5 2/9/5
f 2/9/6 5/7/6 8/11/6
