# Blender 4.0.2
# www.blender.org
o Stairs
v 0.000000 0.000000 1.000000
v 0.000000 0.500000 1.000000
v 0.000000 0.000000 0.000000
v 0.000000 0.500000 0.500000
v 1.000000 0.000000 1.000000
v 1.000000 0.500000 1.000000
v 1.000000 0.000000 0.000000
v 1.000000 0.500000 0.500000
v 0.000000 1.000000 0.000000
v 0.000000 1.000000 0.500000
v 1.000000 1.000000 0.000000
v 1.000000 1.000000 0.500000
vn -1.0000 -0.0000 -0.0000
vn -0.0000 -0.0000 -1.0000
vn 1.0000 -0.0000 -0.0000
vn -0.0000 -0.0000 1.0000
vn -0.0000 -1.0000 -0.0000
vn -0.0000 1.0000 -0.0000
vt 0.857143 0.428571
vt 0.928571 0.500000
vt 1.000000 0.428571
vt 0.857143 0.571429
vt 1.000000 0.500000
vt 1.000000 0.571429
vt 0.857143 0.500000
vt 0.928571 0.571429
s 0
f 1/1/1 4/2/1 3/3/1
f 3/3/2 11/4/2 7/1/2
f 8/2/3 5/1/3 7/3/3
f 6/5/4 1/1/4 5/3/4
f 7/3/5 1/4/5 3/1/5
f 4/4/6 6/5/6 8/6/6
f 10/7/6 11/6/6 9/4/6
f 8/3/4 10/7/4 4/1/4
f 4/2/1 9/6/1 3/3/1
f 8/2/3 11/6/3 12/8/3
f 1/1/1 2/7/1 4/2/1
f 3/3/2 9/6/2 11/4/2
f 8/2/3 6/7/3 5/1/3
f 6/5/4 2/7/4 1/1/4
f 7/3/5 5/6/5 1/4/5
f 4/4/6 2/7/6 6/5/6
f 10/7/6 12/5/6 11/6/6
f 8/3/4 12/5/4 10/7/4
f 4/2/1 10/8/1 9/6/1
f 8/2/3 7/3/3 11/6/3
