# Blender 4.0.2
# www.blender.org
o Stairs
v 0.000000 0.000000 1.000000
v 0.000000 0.500000 1.000000
v 0.000000 0.000000 0.000000
v 0.000000 0.500000 0.500000
v 1.000000 0.000000 1.000000
v 1.000000 0.500000 1.000000
v 1.000000 0.000000 0.000000
v 1.000000 0.500000 0.500000
v 0.000000 1.000000 0.000000
v 0.000000 1.000000 0.500000
v 1.000000 1.000000 0.000000
v 1.000000 1.000000 0.500000
vn -1.0000 -0.0000 -0.0000
vn -0.0000 -0.0000 -1.0000
vn 1.0000 -0.0000 -0.0000
vn -0.0000 -0.0000 1.0000
vn -0.0000 -1.0000 -0.0000
vn -0.0000 1.0000 -0.0000
vt 0.142857 0.857143
vt 0.071429 0.928571
vt 0.000000 0.857143
vt 0.000000 1.000000
vt 0.142857 0.928571
vt 0.142857 1.000000
vt 0.000000 0.857143
vt 0.142857 0.857143
vt 0.071429 1.000000
vt 0.000000 0.928571
s 0
f 1/1/1 4/2/1 3/3/1
f 3/1/2 11/4/2 7/3/2
f 8/2/3 5/3/3 7/1/3
f 6/5/4 1/3/4 5/1/4
f 7/1/5 1/4/5 3/3/5
f 4/4/6 6/5/6 8/6/6
f 10/5/6 11/7/6 9/8/6
f 8/4/4 10/5/4 4/6/4
f 4/2/1 9/4/1 3/3/1
f 8/2/3 11/6/3 12/9/3
f 1/1/1 2/5/1 4/2/1
f 3/1/2 9/6/2 11/4/2
f 8/2/3 6/10/3 5/3/3
f 6/5/4 2/10/4 1/3/4
f 7/1/5 5/6/5 1/4/5
f 4/4/6 2/10/6 6/5/6
f 10/5/6 12/10/6 11/7/6
f 8/4/4 12/10/4 10/5/4
f 4/2/1 10/9/1 9/4/1
f 8/2/3 7/1/3 11/6/3
